<svg xmlns="http://www.w3.org/2000/svg" viewBox="0 0 100 100" width="100" height="100">
  <!-- Background circle -->
  <circle cx="50" cy="50" r="48" fill="#3498db" />
  
  <!-- Book shape -->
  <path d="M30,25 L70,25 C75,25 75,35 70,35 L30,35 C25,35 25,25 30,25 Z" fill="#ecf0f1" />
  <path d="M30,35 L70,35 C75,35 75,75 70,75 L30,75 C25,75 25,35 30,35 Z" fill="#ecf0f1" />
  <path d="M50,35 L50,75" stroke="#3498db" stroke-width="2" />
  
  <!-- Pencil -->
  <polygon points="65,20 70,25 35,60 30,55" fill="#f1c40f" />
  <polygon points="30,55 25,65 35,60" fill="#e74c3c" />
  <rect x="65" y="15" width="10" height="10" transform="rotate(45, 70, 20)" fill="#7f8c8d" />
  
  <!-- Child silhouette -->
  <circle cx="30" cy="45" r="8" fill="#3498db" />
  <path d="M22,55 C22,50 38,50 38,55 L35,75 L25,75 Z" fill="#3498db" />
  <path d="M30,53 L30,60" stroke="#ecf0f1" stroke-width="2" />
  <path d="M25,65 L35,65" stroke="#ecf0f1" stroke-width="2" />
</svg> 